<svg width="76" height="75" viewBox="0 0 76 75" fill="none" xmlns="http://www.w3.org/2000/svg">
<path id="Vector" fill-rule="evenodd" clip-rule="evenodd" d="M45.8716 0.218155C46.9293 0.538374 47.8164 1.26563 48.3378 2.23993C48.8593 3.21424 48.9723 4.35578 48.6521 5.41344L48.4227 6.17114C52.827 9.69873 54.0682 16.2826 52.402 21.7859C50.3338 28.6171 43.6061 34.3598 36.2125 32.1213C28.8189 29.8828 26.4064 21.3728 28.4747 14.5415C30.1409 9.03822 34.8256 4.24857 40.4469 3.75636L40.6763 2.99866C40.9965 1.94101 41.7238 1.05388 42.6981 0.532429C43.6724 0.0109823 44.814 -0.102066 45.8716 0.218155ZM67.9139 22.316C66.3645 21.9307 64.7483 21.8981 63.1845 22.2207C60.3675 22.7826 57.6779 24.3758 55.5991 26.698C53.5216 29.0163 52.2324 31.865 51.9849 34.7243C51.7362 37.5876 52.538 40.7341 55.0212 42.9573C57.5003 45.1794 60.7199 45.6317 63.5369 45.0698C66.3499 44.5066 69.0395 42.9134 71.1171 40.5952C73.1959 38.2729 74.485 35.4242 74.7325 32.5649C74.8817 30.975 74.6723 29.3719 74.1198 27.8736C74.8569 27.0501 75.2367 25.9676 75.1757 24.864C75.1147 23.7605 74.6177 22.7265 73.7943 21.9893C72.9708 21.2522 71.8882 20.8724 70.7847 20.9334C69.6812 20.9944 68.6511 21.4926 67.9139 22.316ZM7.02257 7.57644C5.69916 8.52533 4.65834 9.77744 3.91058 11.1401C2.53051 13.6565 2.02303 16.7418 2.4658 19.8231C2.90737 22.9084 4.26275 25.7219 6.2898 27.7548C8.32203 29.785 11.2518 31.1945 14.5472 30.7207C17.8465 30.2481 20.2601 28.0708 21.6402 25.5544C23.0203 23.038 23.5277 19.9527 23.0862 16.8674C22.6434 13.786 21.2892 10.9686 19.261 8.93962C18.1376 7.80301 16.7734 6.93322 15.2689 6.39445C15.1123 5.30039 14.5275 4.31335 13.6432 3.65045C12.7589 2.98756 11.6474 2.70311 10.5533 2.85969C9.45929 3.01627 8.47224 3.60105 7.80935 4.48539C7.14645 5.36972 6.862 6.48117 7.01858 7.57523L7.02257 7.57644ZM13.713 36.711C20.5575 34.2077 28.0302 33.9965 35.0051 36.1092C42.5422 38.3912 48.5574 43.1118 52.3877 48.4203C56.1081 53.5736 58.243 60.0101 56.5478 65.6091C54.849 71.22 49.0069 73.4913 43.7307 74.1663C38.0932 74.8844 31.1573 74.1253 24.1386 72.0003C17.1199 69.8753 10.9277 66.6597 6.63529 62.9352C2.61964 59.4469 -0.98157 54.3166 0.717227 48.7056C2.4124 43.1066 7.75888 38.9352 13.7142 36.707L13.713 36.711Z" fill="#0292C9"/>
</svg>
