<svg width="11" height="10" viewBox="0 0 11 10" fill="none" xmlns="http://www.w3.org/2000/svg">
<path id="Search_Icon" d="M8.69424 4.08353C8.69424 4.96014 8.40535 5.7699 7.91869 6.42687L10.3733 8.84661C10.6157 9.08534 10.6157 9.47303 10.3733 9.71176C10.1309 9.95048 9.73735 9.95048 9.49499 9.71176L7.04038 7.29202C6.37341 7.77329 5.55133 8.05595 4.66139 8.05595C2.43363 8.05595 0.62854 6.27791 0.62854 4.08353C0.62854 1.88915 2.43363 0.111115 4.66139 0.111115C6.88915 0.111115 8.69424 1.88915 8.69424 4.08353ZM4.66139 6.83366C5.02804 6.83367 5.39109 6.76253 5.72983 6.62432C6.06857 6.48612 6.37635 6.28354 6.63561 6.02817C6.89487 5.7728 7.10053 5.46962 7.24084 5.13596C7.38115 4.8023 7.45336 4.44468 7.45336 4.08353C7.45336 3.72238 7.38115 3.36476 7.24084 3.0311C7.10053 2.69744 6.89487 2.39427 6.63561 2.13889C6.37635 1.88352 6.06857 1.68095 5.72983 1.54274C5.39109 1.40453 5.02804 1.3334 4.66139 1.3334C4.29474 1.3334 3.93169 1.40453 3.59295 1.54274C3.25421 1.68095 2.94643 1.88352 2.68717 2.13889C2.42791 2.39427 2.22225 2.69744 2.08194 3.0311C1.94163 3.36476 1.86942 3.72238 1.86942 4.08353C1.86942 4.44468 1.94163 4.8023 2.08194 5.13596C2.22225 5.46962 2.42791 5.7728 2.68717 6.02817C2.94643 6.28354 3.25421 6.48612 3.59295 6.62432C3.93169 6.76253 4.29474 6.83367 4.66139 6.83366Z" fill="black"/>
</svg>
