<svg width="82" height="84" viewBox="0 0 82 84" fill="none" xmlns="http://www.w3.org/2000/svg">
<path id="Vector" d="M18.5662 9.1439C23.0837 7.07807 29.5962 10.7665 33.1264 17.4594C36.6449 24.1123 35.9026 31.1921 31.3969 33.2979C26.9311 35.392 20.3786 31.7153 16.8084 25.0342C13.2499 18.393 14.0722 11.2897 18.5662 9.1439ZM47.1492 0.744251C52.1296 0.105815 56.6242 5.64671 57.3044 13.1337C57.8764 20.6959 54.3948 27.3213 49.4661 27.9879C44.4975 28.6664 40.0429 23.1137 39.4427 15.6032C38.7907 8.06455 42.2723 1.43914 47.1492 0.744251ZM2.58286 33.818C6.56451 30.52 13.8064 32.2569 18.8654 37.5017C23.7597 42.9251 24.6705 49.8666 20.7288 53.1529C16.7871 56.4393 9.59696 54.7305 4.59443 49.3823C-0.408093 44.0341 -1.25063 37.0292 2.58286 33.818ZM74.5401 12.6721C79.5014 13.2987 82.5826 19.6458 81.2689 26.8501C79.9552 34.0545 74.8326 39.3815 69.7397 38.7502C64.6467 38.1188 61.6572 31.7882 62.8393 24.5791C64.2564 17.4313 69.4072 12.0525 74.5401 12.6721ZM80.5282 57.7283C81.7924 61.4391 80.1359 66.4425 77.1561 69.0119C70.9636 74.3928 60.4915 70.0873 52.5363 72.4251C44.581 74.7629 38.1054 84.3528 30.0241 82.8625C25.4508 82.0784 21.1652 77.6921 20.4161 73.2219C19.3853 67.054 25.6012 61.7531 28.5582 56.1504C32.5384 48.8573 33.4229 37.0888 41.4581 34.7275C49.4534 32.378 56.757 41.5665 63.8572 45.7771C69.7278 49.3502 78.3335 51.2944 80.5282 57.7283Z" fill="#0292C9"/>
</svg>
