<svg width="32" height="32" viewBox="0 0 32 32" fill="none" xmlns="http://www.w3.org/2000/svg">
<g clip-path="url(#clip0_202_108)">
<path d="M32 16C32 7.16344 24.8366 0 16 0C7.16344 0 0 7.16344 0 16C0 24.8366 7.16344 32 16 32C24.8366 32 32 24.8366 32 16Z" fill="#FBB540"/>
<path d="M13.2959 23.6791C13.0986 23.4818 13 23.2481 13 22.9782C13 22.7083 13.0986 22.475 13.2959 22.2782L19.0768 16.4974L13.2762 10.6968C13.0921 10.5126 13 10.2824 13 10.0062C13 9.73001 13.0986 9.49325 13.2959 9.29595C13.4932 9.09865 13.7268 9 13.9968 9C14.2667 9 14.5 9.09865 14.6968 9.29595L21.326 15.9449C21.4049 16.0238 21.461 16.1093 21.4941 16.2014C21.5273 16.2935 21.5436 16.3921 21.5431 16.4974C21.5431 16.6026 21.5265 16.7012 21.4933 16.7933C21.4602 16.8854 21.4044 16.9709 21.326 17.0498L14.677 23.6988C14.4929 23.8829 14.2659 23.975 13.996 23.975C13.7261 23.975 13.4927 23.8764 13.2959 23.6791Z" fill="#FFFAF5"/>
</g>
<defs>
<clipPath id="clip0_202_108">
<rect width="32" height="32" fill="white"/>
</clipPath>
</defs>
</svg>
